<?xml version="1.0" encoding="utf-8"?>
<!-- Generator: Adobe Illustrator 22.1.0, SVG Export Plug-In . SVG Version: 6.00 Build 0)  -->
<svg version="1.1" id="Layer_1" xmlns="http://www.w3.org/2000/svg" xmlns:xlink="http://www.w3.org/1999/xlink" x="0px" y="0px"
	 viewBox="0 0 260 260" style="enable-background:new 0 0 260 260;" xml:space="preserve">
<style type="text/css">
	.st0{fill:#FFFFFF;}
</style>
<circle cx="130" cy="130" r="130"/>
<g>
	<path class="st0" d="M171.1,57.9v-2.7c0-2.2-1.8-3.9-3.9-3.9l-73.9,0c-1.5,0-2.8,1.3-2.8,2.8l0,20.6c0,1.5,1.3,2.8,2.8,2.8l49.4,0
		l-0.1,92.1c0,7.1-6.8,13.4-15.7,13.4c-8.9,0-15.2-6.2-15.2-13.4l0-23.1c0-1.5-1.3-2.8-2.9-2.8l-21,0c-1.6,0-2.9,1.3-2.9,2.8
		l0.3,32.1c0,16.8,20.1,30.1,42.7,30.1c22.7,0,42.5-13,42.5-29.8C170.5,178.9,171.1,57.9,171.1,57.9z"/>
</g>
</svg>
