<?xml version="1.0" encoding="utf-8"?>
<!-- Generator: Adobe Illustrator 21.0.2, SVG Export Plug-In . SVG Version: 6.00 Build 0)  -->
<svg version="1.1" id="Layer_1" xmlns="http://www.w3.org/2000/svg" xmlns:xlink="http://www.w3.org/1999/xlink" x="0px" y="0px"
	 viewBox="0 0 600 350" style="enable-background:new 0 0 600 350;" xml:space="preserve">
<style type="text/css">
	.st0{fill:#FFFFFF;}
</style>
<g>
	<path class="st0" d="M195.1,105c14.9,3.8,23.7,14.8,23.7,27.8c0,17-11.5,31.4-38.6,35.8l-4.7-7.3c21-2.3,34.9-13.1,34.9-29
		c0-9.3-6.2-17.7-17.8-20.7c-6.7,16.7-16.1,29.9-26.3,38.7c0.8,3.3,1.8,6.6,2.7,9.6l-7.8,2.4c-0.7-2.2-1.3-4.4-2-6.9
		c-6.6,4.1-13.7,6.8-20.2,6.8c-7.8,0-13.7-4.8-13.7-14.5c0-15.3,13.5-30.9,29.6-38.2c0.2-6.1,0.8-12.2,1.3-17.8
		c-2.6,0.1-5.3,0.1-7.8,0.1c-4.9,0-14.1-0.5-18.8-0.7l-0.2-8.2c4.1,0.7,14.3,1.4,19.1,1.4c2.9,0,5.6,0,8.5-0.1
		c0.4-3.7,0.7-6.9,1-9.6c0.1-1.9,0.4-3.9,0.2-5.3l9.1,0.2c-0.5,1.3-1,3.5-1.2,5c-0.5,2.5-1.1,5.7-1.6,9.3
		c15.1-0.6,29.6-2.3,41.6-4.9l0.1,8c-12.4,2.2-28.2,3.7-42.7,4.4c-0.5,4.8-0.8,9.9-1.2,15.2c6.8-2,14.2-3.2,20.2-3.2
		c1.6,0,3.1,0.1,4.7,0.2l0.5-1.9c0.5-1.6,1-4.4,1.2-6.1l8.6,2c-0.7,1.6-1.6,4.3-2.2,6.1L195.1,105z M154.6,117.6
		c-11.9,6.6-21.1,18.8-21.1,28.8c0,5,2.4,7.5,6.9,7.5c4.8,0,10.9-2.3,17.1-6.7c-1.7-8.5-2.9-17.9-2.9-26.6V117.6z M185,110.5
		c-0.7,0-1.6,0-2.3,0c-7.8,0-14.8,1.7-20.4,3.8c-0.1,1.8-0.1,3.7-0.1,5.5c0,7.4,0.8,14.8,2.2,21.7C172.4,134,179.8,124.1,185,110.5z
		"/>
</g>
<g>
	<path class="st0" d="M71.4,221.8H60.7c-1.1,0-2-0.9-2-2V208c0-1.1,0.9-2,2-2h10.7c1.1,0,2,0.9,2,2v11.8
		C73.4,220.9,72.5,221.8,71.4,221.8z"/>
	<path class="st0" d="M90.4,221.8H79.7c-1.1,0-2-0.9-2-2V208c0-1.1,0.9-2,2-2h10.7c1.1,0,2,0.9,2,2v11.8
		C92.4,220.9,91.5,221.8,90.4,221.8z"/>
	<path class="st0" d="M109.3,221.8H98.6c-1.1,0-2-0.9-2-2V208c0-1.1,0.9-2,2-2h10.7c1.1,0,2,0.9,2,2v11.8
		C111.3,220.9,110.4,221.8,109.3,221.8z"/>
	<path class="st0" d="M128.2,221.8h-10.7c-1.1,0-2-0.9-2-2V208c0-1.1,0.9-2,2-2h10.7c1.1,0,2,0.9,2,2v11.8
		C130.2,220.9,129.3,221.8,128.2,221.8z"/>
	<path class="st0" d="M147.1,221.8h-10.7c-1.1,0-2-0.9-2-2V208c0-1.1,0.9-2,2-2h10.7c1.1,0,2,0.9,2,2v11.8
		C149.1,220.9,148.2,221.8,147.1,221.8z"/>
	<path class="st0" d="M166,221.8h-10.7c-1.1,0-2-0.9-2-2V208c0-1.1,0.9-2,2-2H166c1.1,0,2,0.9,2,2v11.8
		C168,220.9,167.1,221.8,166,221.8z"/>
	<path class="st0" d="M184.9,221.8h-10.7c-1.1,0-2-0.9-2-2V208c0-1.1,0.9-2,2-2h10.7c1.1,0,2,0.9,2,2v11.8
		C186.9,220.9,186,221.8,184.9,221.8z"/>
	<path class="st0" d="M203.8,221.8h-10.7c-1.1,0-2-0.9-2-2V208c0-1.1,0.9-2,2-2h10.7c1.1,0,2,0.9,2,2v11.8
		C205.8,220.9,204.9,221.8,203.8,221.8z"/>
	<path class="st0" d="M222.7,221.8H212c-1.1,0-2-0.9-2-2V208c0-1.1,0.9-2,2-2h10.7c1.1,0,2,0.9,2,2v11.8
		C224.7,220.9,223.8,221.8,222.7,221.8z"/>
	<path class="st0" d="M241.6,221.8h-10.7c-1.1,0-2-0.9-2-2V208c0-1.1,0.9-2,2-2h10.7c1.1,0,2,0.9,2,2v11.8
		C243.6,220.9,242.7,221.8,241.6,221.8z"/>
	<path class="st0" d="M260.6,221.8h-10.7c-1.1,0-2-0.9-2-2V208c0-1.1,0.9-2,2-2h10.7c1.1,0,2,0.9,2,2v11.8
		C262.6,220.9,261.7,221.8,260.6,221.8z"/>
</g>
<path class="st0" d="M74.6,241.8H63.9c-1.1,0-2-0.9-2-2V228c0-1.1,0.9-2,2-2h10.7c1.1,0,2,0.9,2,2v11.8
	C76.6,240.9,75.7,241.8,74.6,241.8z"/>
<path class="st0" d="M93.5,241.8H82.8c-1.1,0-2-0.9-2-2V228c0-1.1,0.9-2,2-2h10.7c1.1,0,2,0.9,2,2v11.8
	C95.5,240.9,94.6,241.8,93.5,241.8z"/>
<path class="st0" d="M112.4,241.8h-10.7c-1.1,0-2-0.9-2-2V228c0-1.1,0.9-2,2-2h10.7c1.1,0,2,0.9,2,2v11.8
	C114.4,240.9,113.5,241.8,112.4,241.8z"/>
<path class="st0" d="M131.3,241.8h-10.7c-1.1,0-2-0.9-2-2V228c0-1.1,0.9-2,2-2h10.7c1.1,0,2,0.9,2,2v11.8
	C133.3,240.9,132.4,241.8,131.3,241.8z"/>
<path class="st0" d="M150.2,241.8h-10.7c-1.1,0-2-0.9-2-2V228c0-1.1,0.9-2,2-2h10.7c1.1,0,2,0.9,2,2v11.8
	C152.2,240.9,151.3,241.8,150.2,241.8z"/>
<path class="st0" d="M169.2,241.8h-10.7c-1.1,0-2-0.9-2-2V228c0-1.1,0.9-2,2-2h10.7c1.1,0,2,0.9,2,2v11.8
	C171.2,240.9,170.3,241.8,169.2,241.8z"/>
<path class="st0" d="M188.1,241.8h-10.7c-1.1,0-2-0.9-2-2V228c0-1.1,0.9-2,2-2h10.7c1.1,0,2,0.9,2,2v11.8
	C190.1,240.9,189.2,241.8,188.1,241.8z"/>
<path class="st0" d="M207,241.8h-10.7c-1.1,0-2-0.9-2-2V228c0-1.1,0.9-2,2-2H207c1.1,0,2,0.9,2,2v11.8
	C209,240.9,208.1,241.8,207,241.8z"/>
<path class="st0" d="M225.9,241.8h-10.7c-1.1,0-2-0.9-2-2V228c0-1.1,0.9-2,2-2h10.7c1.1,0,2,0.9,2,2v11.8
	C227.9,240.9,227,241.8,225.9,241.8z"/>
<path class="st0" d="M244.8,241.8h-10.7c-1.1,0-2-0.9-2-2V228c0-1.1,0.9-2,2-2h10.7c1.1,0,2,0.9,2,2v11.8
	C246.8,240.9,245.9,241.8,244.8,241.8z"/>
<path class="st0" d="M263.7,241.8H253c-1.1,0-2-0.9-2-2V228c0-1.1,0.9-2,2-2h10.7c1.1,0,2,0.9,2,2v11.8
	C265.7,240.9,264.8,241.8,263.7,241.8z"/>
<path class="st0" d="M74.6,280.6H63.9c-1.1,0-2-0.9-2-2v-11.8c0-1.1,0.9-2,2-2h10.7c1.1,0,2,0.9,2,2v11.8
	C76.6,279.7,75.7,280.6,74.6,280.6z"/>
<path class="st0" d="M93.5,280.6H82.8c-1.1,0-2-0.9-2-2v-11.8c0-1.1,0.9-2,2-2h10.7c1.1,0,2,0.9,2,2v11.8
	C95.5,279.7,94.6,280.6,93.5,280.6z"/>
<path class="st0" d="M112.4,280.6h-10.7c-1.1,0-2-0.9-2-2v-11.8c0-1.1,0.9-2,2-2h10.7c1.1,0,2,0.9,2,2v11.8
	C114.4,279.7,113.5,280.6,112.4,280.6z"/>
<path class="st0" d="M188.1,280.6h-67.4c-1.1,0-2-0.9-2-2v-11.8c0-1.1,0.9-2,2-2h67.4c1.1,0,2,0.9,2,2v11.8
	C190.1,279.7,189.2,280.6,188.1,280.6z"/>
<path class="st0" d="M188.1,280.6h-10.7c-1.1,0-2-0.9-2-2v-11.8c0-1.1,0.9-2,2-2h10.7c1.1,0,2,0.9,2,2v11.8
	C190.1,279.7,189.2,280.6,188.1,280.6z"/>
<path class="st0" d="M207,280.6h-10.7c-1.1,0-2-0.9-2-2v-11.8c0-1.1,0.9-2,2-2H207c1.1,0,2,0.9,2,2v11.8
	C209,279.7,208.1,280.6,207,280.6z"/>
<path class="st0" d="M225.9,280.6h-10.7c-1.1,0-2-0.9-2-2v-11.8c0-1.1,0.9-2,2-2h10.7c1.1,0,2,0.9,2,2v11.8
	C227.9,279.7,227,280.6,225.9,280.6z"/>
<path class="st0" d="M244.8,280.6h-10.7c-1.1,0-2-0.9-2-2v-11.8c0-1.1,0.9-2,2-2h10.7c1.1,0,2,0.9,2,2v11.8
	C246.8,279.7,245.9,280.6,244.8,280.6z"/>
<path class="st0" d="M263.7,280.6H253c-1.1,0-2-0.9-2-2v-11.8c0-1.1,0.9-2,2-2h10.7c1.1,0,2,0.9,2,2v11.8
	C265.7,279.7,264.8,280.6,263.7,280.6z"/>
<path class="st0" d="M83,260.7H72.3c-1.1,0-2-0.9-2-2v-11.8c0-1.1,0.9-2,2-2H83c1.1,0,2,0.9,2,2v11.8C85,259.8,84.1,260.7,83,260.7z
	"/>
<path class="st0" d="M64.1,260.7H38.7c-1.1,0-2-0.9-2-2v-11.8c0-1.1,0.9-2,2-2h25.4c1.1,0,2,0.9,2,2v11.8
	C66.1,259.8,65.2,260.7,64.1,260.7z"/>
<path class="st0" d="M55.7,280.6h-17c-1.1,0-2-0.9-2-2v-11.8c0-1.1,0.9-2,2-2h17c1.1,0,2,0.9,2,2v11.8
	C57.7,279.7,56.8,280.6,55.7,280.6z"/>
<path class="st0" d="M294.2,280.6h-23.3c-1.1,0-2-0.9-2-2v-11.8c0-1.1,0.9-2,2-2h23.3c1.1,0,2,0.9,2,2v11.8
	C296.2,279.7,295.3,280.6,294.2,280.6z"/>
<path class="st0" d="M55.7,241.8h-17c-1.1,0-2-0.9-2-2V228c0-1.1,0.9-2,2-2h17c1.1,0,2,0.9,2,2v11.8
	C57.7,240.9,56.8,241.8,55.7,241.8z"/>
<path class="st0" d="M52.5,221.8H38.7c-1.1,0-2-0.9-2-2V208c0-1.1,0.9-2,2-2h13.9c1.1,0,2,0.9,2,2v11.8
	C54.5,220.9,53.6,221.8,52.5,221.8z"/>
<path class="st0" d="M293.1,221.8h-25.4c-1.1,0-2-0.9-2-2V208c0-1.1,0.9-2,2-2h25.4c1.1,0,2,0.9,2,2v11.8
	C295.1,220.9,294.2,221.8,293.1,221.8z"/>
<path class="st0" d="M293.9,225.9l-23,0c-1.2,0-2.1,0.9-2.1,2.1l0,16.9h-6.3c-1.2,0-2.1,0.9-2.1,2.1v11.6c0,1.2,0.9,2.1,2.1,2.1h8.4
	c0,0,0,0,0,0l23,0c1.2,0,2.1-0.9,2.1-2.1l0-30.6C296,226.8,295.1,225.9,293.9,225.9z"/>
<path class="st0" d="M101.9,260.7H91.2c-1.1,0-2-0.9-2-2v-11.8c0-1.1,0.9-2,2-2h10.7c1.1,0,2,0.9,2,2v11.8
	C103.9,259.8,103,260.7,101.9,260.7z"/>
<path class="st0" d="M120.8,260.7h-10.7c-1.1,0-2-0.9-2-2v-11.8c0-1.1,0.9-2,2-2h10.7c1.1,0,2,0.9,2,2v11.8
	C122.8,259.8,121.9,260.7,120.8,260.7z"/>
<path class="st0" d="M139.7,260.7H129c-1.1,0-2-0.9-2-2v-11.8c0-1.1,0.9-2,2-2h10.7c1.1,0,2,0.9,2,2v11.8
	C141.7,259.8,140.8,260.7,139.7,260.7z"/>
<path class="st0" d="M158.6,260.7h-10.7c-1.1,0-2-0.9-2-2v-11.8c0-1.1,0.9-2,2-2h10.7c1.1,0,2,0.9,2,2v11.8
	C160.6,259.8,159.7,260.7,158.6,260.7z"/>
<path class="st0" d="M177.6,260.7h-10.7c-1.1,0-2-0.9-2-2v-11.8c0-1.1,0.9-2,2-2h10.7c1.1,0,2,0.9,2,2v11.8
	C179.6,259.8,178.7,260.7,177.6,260.7z"/>
<path class="st0" d="M196.5,260.7h-10.7c-1.1,0-2-0.9-2-2v-11.8c0-1.1,0.9-2,2-2h10.7c1.1,0,2,0.9,2,2v11.8
	C198.5,259.8,197.6,260.7,196.5,260.7z"/>
<path class="st0" d="M215.4,260.7h-10.7c-1.1,0-2-0.9-2-2v-11.8c0-1.1,0.9-2,2-2h10.7c1.1,0,2,0.9,2,2v11.8
	C217.4,259.8,216.5,260.7,215.4,260.7z"/>
<path class="st0" d="M234.3,260.7h-10.7c-1.1,0-2-0.9-2-2v-11.8c0-1.1,0.9-2,2-2h10.7c1.1,0,2,0.9,2,2v11.8
	C236.3,259.8,235.4,260.7,234.3,260.7z"/>
<path class="st0" d="M253.2,260.7h-10.7c-1.1,0-2-0.9-2-2v-11.8c0-1.1,0.9-2,2-2h10.7c1.1,0,2,0.9,2,2v11.8
	C255.2,259.8,254.3,260.7,253.2,260.7z"/>
<g>
	<path d="M70,236.1h-2.2l-0.5,1.6h-1.6l2.3-7h1.8l2.3,7h-1.7L70,236.1z M69,232L69,232l-0.9,2.9h1.6L69,232z"/>
</g>
</svg>
