<?xml version="1.0" encoding="utf-8"?>
<!-- Generator: Adobe Illustrator 21.0.2, SVG Export Plug-In . SVG Version: 6.00 Build 0)  -->
<svg version="1.1" id="Layer_1" xmlns="http://www.w3.org/2000/svg" xmlns:xlink="http://www.w3.org/1999/xlink" x="0px" y="0px"
	 viewBox="0 0 70 70" style="enable-background:new 0 0 70 70;" xml:space="preserve">
<style type="text/css">
	.st0{fill:#FFFFFF;}
</style>
<g>
	<path class="st0" d="M35,0C15.7,0,0,15.7,0,35s15.7,35,35,35s35-15.7,35-35S54.3,0,35,0z M32.2,14c0.2-0.4,0.5-0.8,0.8-1.1
		c0.7-0.6,1.6-0.9,2.6-0.9c1,0,1.8,0.3,2.5,1c0.6,0.6,0.9,1.5,0.9,2.4c0,1-0.3,1.8-1,2.5c-0.7,0.7-1.5,1-2.6,1c-1.1,0-2-0.3-2.6-1
		c-0.6-0.6-0.9-1.4-0.9-2.2C31.8,15,32,14.5,32.2,14z M40.7,52.7c-0.8,0-1.6-0.1-2.5-0.2c-1.6-0.3-3.7-0.3-5.4,0
		c-0.9,0.2-1.7,0.2-2.5,0.2c-2,0-2.5-0.9-2.5-1.6c0-0.3,0.1-1.3,1.6-1.3L31,50c0.3,0,0.6-0.1,0.8-0.2c0.1-0.1,0.3-0.2,0.5-0.8
		c0.3-0.9,0.4-3.1,0.4-6.5v-8.8c0-2.4-0.2-3.2-0.3-3.4c-0.2-0.4-0.4-0.7-0.7-0.8c-0.2-0.1-0.6-0.3-1.5-0.4c-1.4-0.2-1.6-1-1.6-1.4
		c0-1.1,1.4-1.4,1.9-1.5c2.3-0.5,3.8-0.9,4.7-1.4c1.7-1,2.4-1.1,2.7-1.1c0.7,0,1.2,0.4,1.2,1.2c0,0.3,0,0.5-0.1,0.8
		c-0.4,1.3-0.6,3.9-0.6,7.8v9.1c0,4.2,0.2,5.7,0.3,6.1c0.3,0.9,0.5,1.1,0.6,1.1c0.2,0.1,0.5,0.2,0.9,0.2l1.5-0.1
		c1.5,0,1.6,1,1.6,1.3C43.2,51.9,42.7,52.7,40.7,52.7z"/>
</g>
</svg>
