<?xml version="1.0" encoding="utf-8"?>
<!-- Generator: Adobe Illustrator 23.0.1, SVG Export Plug-In . SVG Version: 6.00 Build 0)  -->
<svg version="1.1" id="Layer_1" xmlns="http://www.w3.org/2000/svg" xmlns:xlink="http://www.w3.org/1999/xlink" x="0px" y="0px"
	 viewBox="0 0 317 350" style="enable-background:new 0 0 317 350;" xml:space="preserve">
<style type="text/css">
	.st0{fill:#FFFFFF;}
	.st1{fill:#E74749;}
</style>
<path class="st0" d="M224.6,291.3H97.4c-7.5,0-13.6-6.1-13.6-13.6V72.3c0-7.5,6.1-13.6,13.6-13.6h127.1c7.5,0,13.6,6.1,13.6,13.6
	v205.4C238.2,285.2,232.1,291.3,224.6,291.3z"/>
<circle class="st1" cx="109.5" cy="99.7" r="12.5"/>
<circle class="st1" cx="211.8" cy="99.7" r="12.5"/>
<circle class="st1" cx="160.9" cy="99.7" r="12.5"/>
<circle class="st1" cx="135.2" cy="125.4" r="12.5"/>
<circle class="st1" cx="186.8" cy="125.4" r="12.5"/>
<g>
	<g>
		<path class="st1" d="M188.1,188c14.9,3.8,23.7,14.8,23.7,27.8c0,17-11.5,31.4-38.6,35.8l-4.7-7.3c21-2.3,34.9-13.1,34.9-29
			c0-9.3-6.2-17.7-17.8-20.7c-6.7,16.7-16.1,29.9-26.3,38.7c0.8,3.3,1.8,6.6,2.7,9.6l-7.8,2.4c-0.7-2.2-1.3-4.4-2-6.9
			c-6.6,4.1-13.7,6.8-20.2,6.8c-7.8,0-13.7-4.8-13.7-14.5c0-15.3,13.5-30.9,29.6-38.2c0.2-6.1,0.8-12.2,1.3-17.8
			c-2.6,0.1-5.3,0.1-7.8,0.1c-4.9,0-14.1-0.5-18.8-0.7l-0.2-8.2c4.1,0.7,14.3,1.4,19.1,1.4c2.9,0,5.6,0,8.5-0.1
			c0.4-3.7,0.7-6.9,1-9.6c0.1-1.9,0.4-3.9,0.2-5.3l9.1,0.2c-0.5,1.3-1,3.5-1.2,5c-0.5,2.5-1.1,5.7-1.6,9.3
			c15.1-0.6,29.6-2.3,41.6-4.9l0.1,8c-12.4,2.2-28.2,3.7-42.7,4.4c-0.5,4.8-0.8,9.9-1.2,15.2c6.8-2,14.2-3.2,20.2-3.2
			c1.6,0,3.1,0.1,4.7,0.2l0.5-1.9c0.5-1.6,1-4.4,1.2-6.1l8.6,2c-0.7,1.6-1.6,4.3-2.2,6.1L188.1,188z M147.6,200.6
			c-11.9,6.6-21.1,18.8-21.1,28.8c0,5,2.4,7.5,6.9,7.5c4.8,0,10.9-2.3,17.1-6.7c-1.7-8.5-2.9-17.9-2.9-26.6V200.6z M178,193.5
			c-0.7,0-1.6,0-2.3,0c-7.8,0-14.8,1.7-20.4,3.8c-0.1,1.8-0.1,3.7-0.1,5.5c0,7.4,0.8,14.8,2.2,21.7C165.4,217,172.8,207.1,178,193.5
			z"/>
	</g>
</g>
<g>
	<path class="st0" d="M111.1,102.4H108l-0.7,2.3H105l3.3-9.9h2.5l3.3,9.9h-2.4L111.1,102.4z M109.7,96.6L109.7,96.6l-1.3,4.1h2.3
		L109.7,96.6z"/>
</g>
</svg>
