<?xml version="1.0" encoding="utf-8"?>
<!-- Generator: Adobe Illustrator 21.0.2, SVG Export Plug-In . SVG Version: 6.00 Build 0)  -->
<svg version="1.1" id="Layer_1" xmlns="http://www.w3.org/2000/svg" xmlns:xlink="http://www.w3.org/1999/xlink" x="0px" y="0px"
	 viewBox="0 0 70 70" style="enable-background:new 0 0 70 70;" xml:space="preserve">
<style type="text/css">
	.st0{fill:#932222;}
</style>
<path class="st0" d="M46.5,16.5c0-4.3-3.6-7.9-7.9-7.9H27.9c-4.3,0-7.9,3.6-7.9,7.9v1.7l0,0v26.1c0,2.2,1.8,4,4,4
	c1.1,0,2.1-0.4,2.8-1.2v16.7c0,1.8,1.4,3.2,3.2,3.2s3.2-1.4,3.2-3.2V50.7c0.7,1,1.9,1.6,3.2,1.6c2,0,3.6-1.4,3.9-3.3
	c0.5,0.2,1,0.3,1.5,0.3c1.7,0,3.2-1.1,3.7-2.6c0.4,0.2,0.8,0.3,1.3,0.3c1.8,0,3.2-1.4,3.2-3.2c0,0,0.1-4.7,0.1-8.7L46.5,16.5z"/>
</svg>
