<?xml version="1.0" encoding="utf-8"?>
<!-- Generator: Adobe Illustrator 21.0.2, SVG Export Plug-In . SVG Version: 6.00 Build 0)  -->
<svg version="1.1" id="Layer_1" xmlns="http://www.w3.org/2000/svg" xmlns:xlink="http://www.w3.org/1999/xlink" x="0px" y="0px"
	 viewBox="0 0 70 70" style="enable-background:new 0 0 70 70;" xml:space="preserve">
<style type="text/css">
	.st0{fill:#FFFFFF;}
</style>
<g>
	<g>
		<path class="st0" d="M27.4,39l0.1-1l-0.8,0.5c-1.5,0.8-2.7,2.2-3.6,4c-0.5,1-0.7,2-0.7,3c0,1.1,0.4,1.9,1.1,2.3
			c0.4,0.2,0.7,0.3,1.1,0.3c0.9,0,1.9-0.5,2.9-1.6l0.2-0.2l0-0.3C27.3,44,27.2,41.6,27.4,39z"/>
	</g>
	<g>
		<path class="st0" d="M32,36.4l-0.3,0.1l-0.1,0.3c-0.4,1.5-0.5,3.1-0.5,4.8v1.3l0.9-1c1.5-1.8,2.6-3.5,3.4-5.3l0.3-0.8l-0.9,0.1
			C34,36,33,36.2,32,36.4z"/>
	</g>
	<g>
		<path class="st0" d="M35,0C15.7,0,0,15.7,0,35s15.7,35,35,35s35-15.7,35-35S54.3,0,35,0z M50.1,48.5c-1.3,1.7-3.3,3-5.9,3.8
			c-3.1,0.9-6.3,1.3-9.7,1.2l-0.9-1.5c5.3-0.7,9.2-2.2,11.6-4.3c1.6-1.5,2.4-3,2.4-4.5c0-1.6-0.6-3-1.7-4.1
			c-1.2-1.2-3.1-2.1-5.6-2.7l-0.4-0.1l-0.2,0.4c-1.9,4.3-4.3,7.8-7.1,10.5l-0.3,0.2l1.2,2.7l-4,2.7l-0.9-2.1L28.2,51
			c-1.7,1.3-3.6,1.8-5.7,1.6c-2.2-0.2-3.4-1.4-3.9-3.7c-0.5-2.9,0.1-5.7,1.8-8.2c1.9-2.7,4.2-4.5,7-5.5l0.3-0.1l0-0.3
			c0.3-2,0.7-3.9,1.2-5.6l0.2-0.7l-0.7,0.1c-2.4,0.2-5,0.4-7.6,0.5c-0.7-1.3-1.3-2.6-1.7-3.9l1.5-0.8c1,1,1.8,1.5,2.4,1.6l0.1,0
			l6.6-0.4l0.1-0.3c0.5-1.5,0.8-2.6,0.9-3.1c0.3-1.3,0-2.3-0.6-2.9l-1.4-1.8l1.2-0.9c2.6,1.1,4.6,2.1,6,2.9
			c-0.6,1.4-1.2,3.1-1.7,5.2L34,25.3l0.7-0.1c4.1-0.4,7.8-1.1,11.1-1.8c0.6,1,1.3,2.2,2,3.7c-4.7,0-9.4,0.4-14.1,1l-0.3,0l-0.1,0.3
			c-0.7,2-1.1,3.6-1.2,4.8l-0.1,0.6l0.6-0.1c1-0.1,2.2-0.2,3.4-0.2h0.3l0.4-0.8l-0.1-0.2c-0.2-0.7-0.7-1.3-1.3-2.1l1.1-1.1
			c1.8,0.8,3.4,1.8,4.9,2.8l-0.6,1.4l0.6,0.1c2.2,0.3,4.2,1.1,5.8,2.2c2.9,1.9,4.2,4.1,4.2,7C51.5,45.3,51,47.2,50.1,48.5z"/>
	</g>
</g>
</svg>
