<svg id="Layer_1" data-name="Layer 1" xmlns="http://www.w3.org/2000/svg" width="200" height="200" viewBox="0 0 200 200">
  <defs>
    <style>
      .cls-1 {
        fill: #837979;
      }

      .cls-2 {
        fill: #d4c3c3;
      }
    </style>
  </defs>
  <title>Artboard 2 copy</title>
  <path class="cls-1" d="M108.28,42.47l-3-19.84c-.24-1.63-1.94-7.94-2.18-9.58C102.93,13.11,40.53,55.71,40,52l-.41-2.75c-.14-.88,0-.9-.91-1.2L24.19,43.36l-8.37-2.69c-1.22-.39-4.23-1.11-4.23-2.89h0c.82,5.46,3.63,20.94,4.45,26.4l1.71,11.41c.25,1.71.38,3.5.77,5.19a3.19,3.19,0,0,0,1.9,2.06,38.3,38.3,0,0,0,5.23,1.77l2.94.94c.39.13,2,.41,2.21.73a2.53,2.53,0,0,1,.13.83l1.58,10.6.76,5.05a6.81,6.81,0,0,0,.64,2.68c1.54,2.42,5.47,2.62,8,2.46a17.63,17.63,0,0,0,7.48-2.1A19.59,19.59,0,0,0,53,102.87c1.53-1.38,3.06-2.76,4.61-4.12l2.2-1.92c.36-.32.79-.83,1.23-.84a7.18,7.18,0,0,1,1.7.55l5.89,1.9,24,7.7,5.9,1.9C97.06,98.39,108.64,44.84,108.28,42.47Z"/>
  <path class="cls-1" d="M186.41,127.18c.75-1.22.26-2.74.06-4.06l-1.16-7.73c-.92-6.15-3.84-22.31-4.76-28.46l-.65-4.41c.32,2.15-2.52,3.79-4.1,4.56A17.37,17.37,0,0,1,172,88.41c-.38.09-2,.58-2.25.33s-.2-1.3-.24-1.56L169,83.8,166,64.11l-.79-5.29c.23,1.59-1.35,2.83-2.32,3.86-1.24,1.33-35.43,13.9-35.86,13.77-.93-.3,4-2.31,4.9-6.18s-2.66-13.77-3-17.63c-.17-1.88-.53-3.75-.81-5.61l-3.32-22.27-.93-6.19c.77,5.12-.59,10.38-1.88,15.3A131.16,131.16,0,0,1,116.91,49c-1,2.51-7.37-.34-8.44,2.13-6.49-6.48-27.73,53.07-27.73,53.07s3.47,19.83,4.2,24.74l2.66,17.75a10.88,10.88,0,0,0,.92,3.31c1.28,2.59,3.92,4,6.63,4.68,5.86,1.44,12.12.16,17.63-2,6-2.34,11.36-6,16.42-9.93,5.7-4.43,11.29-9,16.71-13.77l2-1.81a22.7,22.7,0,0,1,2.31-2.09c.43-.28.14-.23.63-.15a9.62,9.62,0,0,1,1.38.44l2.77.89,11,3.52c3.46,1.12,6.75,2.42,10.45,2.07a17.66,17.66,0,0,0,7.32-2.28A7.68,7.68,0,0,0,186.41,127.18Z"/>
  <path class="cls-2" d="M176.81,80c7.79,2.51-.54,8.88-8.83,8.88a13.78,13.78,0,0,1-4.2-.62L146,82.55l-2.41-.78q-8.6,7.86-18.18,15.44c-6.13,4.83-14,11.37-24.62,14.06a30.59,30.59,0,0,1-7.41,1A16.71,16.71,0,0,1,84.28,110c-3.48-2.32-3.77-5.93-3.69-9,.14-5.55,1.78-11.29,3.62-17,2.06-6.31,4.64-12.63,7.36-19L67.22,57.2,53.93,52.93c-3.25,2.81-6.45,5.64-9.53,8.49-2.22,2.06-6.45,3.51-10.51,3.51a15.3,15.3,0,0,1-2.35-.17c-4.36-.66-6.46-3.42-3.81-5.88l.74-.69q5.24-5,10.94-9.93l-24.73-8c-7.8-2.5.53-8.88,8.82-8.88a13.89,13.89,0,0,1,4.21.62l20.18,6.5,2.3.74C56.78,34,63.73,28.84,71,23.87,78.6,18.66,88,12.3,99.55,9.31A38.22,38.22,0,0,1,109,8.06a22.35,22.35,0,0,1,7.6,1.17,10.42,10.42,0,0,1,7.16,8.56c1,4.86-.25,10.1-1.52,15.18a157,157,0,0,1-8.5,23.64c-.4.91-.8,1.81-1.19,2.72l15.11,4.86,11.13,3.58q4.42-4.44,8.65-8.89c2.24-2.37,6.23-3.4,9.87-3.4,5.5,0,10.19,2.35,6.8,5.94l-.68.72q-4.81,5.16-10,10.33ZM64.63,43.92,96.32,54.11a148.92,148.92,0,0,0,7.32-20.7c.22-.86.43-1.72.62-2.58l.21-1c.21-1.28.4-2.47.5-3.65a20.46,20.46,0,0,0-.22-6.06c-.07-.33-.21-.65-.28-1a2.44,2.44,0,0,0-.1-.24,7.11,7.11,0,0,0-.54-.85,2.14,2.14,0,0,0,.76-.31l-.51.14-.3.11c-.54.12-.66.18-.57.18-1,.41-2,.83-2.93,1.27l-1.37.65a2.47,2.47,0,0,0-.92.58c-.76.4-1.69.81-2.32,1.16q-1.65.95-3.24,1.92c-4.85,3-9.31,6-13.6,9.17-2.33,1.7-4.6,3.41-6.83,5.14l-1.72,1.33-1.11.87-1.09.87-1.49,1.19-2,1.61M115.69,89q7-5.9,13.42-11.93l-21.26-6.84c-1.83,4.41-3.55,8.81-5,13.22a92.89,92.89,0,0,0-2.58,9.15c0,.18-.21,1.09-.22,1.09a1.21,1.21,0,0,0,0,.14c-.08.55-.17,1.09-.24,1.63a28.18,28.18,0,0,0-.24,3.15,16.22,16.22,0,0,0,.12,2.2c1.91-1.14,3.7-2.33,5.41-3.54,2-1.4,3.87-2.83,5.73-4.26l-.17.14.25-.2.1-.08.18-.14.31-.25,1.41-1.14L115.69,89m-15.11,14.27c.14.08.26.17.25.2,0-.18-.13-.32-.35-.42l.1.22m-.71-1.23a1.32,1.32,0,0,1,.31.39.5.5,0,0,0-.31-.39h0m3.25-84.74a5,5,0,0,0-.62-.15l.64.16h0m-8.34,85.85a3.1,3.1,0,0,0,.38-.13h0l-.37.13M105,17.62h0l.49,0c.12,0-.08,0-.39-.05H105"/>
</svg>
