<svg id="Layer_1" data-name="Layer 1" xmlns="http://www.w3.org/2000/svg" width="400" height="400" viewBox="0 0 400 400">
  <defs>
    <style>
      .cls-1 {
        fill: #131747;
      }

      .cls-2 {
        fill: #f29b5f;
      }

      .cls-3 {
        fill: #ffd194;
      }

      .cls-4 {
        fill: #fb7476;
      }

      .cls-5 {
        fill: #0b2f7f;
      }

      .cls-6 {
        fill: #c43b3b;
      }
    </style>
  </defs>
  <title>Artboard 1 copy</title>
  <path class="cls-1" d="M375.64,153.12l-.36,79.61c-.08,18.59-16.93,37.14-50.6,51.34-68.08,28.72-179.17,28.78-248.14.13-34.84-14.48-52.26-33.52-52.18-52.51l.36-79.61c-.09,19,17.33,38,52.18,52.51,69,28.65,184.27,25.93,248.13-.12C358.71,190.27,375.55,171.71,375.64,153.12Z"/>
  <path class="cls-2" d="M80.07,24.34V52.21L90.36,72.28s56.81,27.19,67.15,27.83,158.42-1.53,163.4-2S353.7,74.31,353.7,74.31V46.44L265,35.26Z"/>
  <path class="cls-3" d="M353.7,46.44C217.43,78.65,132,51.41,80.07,24.34,111.46,9.24,153.67,0,200.09,0,266.18,0,323.75,18.74,353.7,46.44Z"/>
  <path class="cls-4" d="M373.37,132.46a59,59,0,0,0,2.25-13.55A47.16,47.16,0,0,1,374,130.3Q373.72,131.38,373.37,132.46Z"/>
  <path class="cls-5" d="M373.31,132.64c-8.26,28.21-36.89,45.76-69.37,57.94C340.12,176.94,365.74,156.35,373.31,132.64Z"/>
  <path class="cls-5" d="M375.64,118.59c0,.11,0,.22,0,.32,0-.11,0-.21,0-.32Z"/>
  <polygon class="cls-6" points="24.72 117.31 24.54 179.49 73.34 208.37 154.95 225.73 299.46 223.69 375.64 183.73 375.64 118.58 103.02 93.26 24.72 117.31"/>
  <path class="cls-4" d="M375.64,118c0,.21,0,.43,0,.64-.9,0-1.82,11.75-47.44,20.18-45.81,8.47-64.75,56-157.84,5-61.64-33.77-116.06-31.45-145.81-26,0-1.24.07-2.48.17-3.71,2-24.37,22.9-46.25,55.36-61.86C132,79.28,217.43,106.52,353.7,74.31,367.68,87.24,375.64,102.11,375.64,118Z"/>
  <path class="cls-5" d="M375.64,180c-1.75,30.36-35.18,47.77-73.5,59.24-28.77,8.62-64,13.69-102,13.69-97,0-175.55-32.89-175.55-73.45v-.13c29.74-4.43,84.17-6.32,145.81,21.22,93.08,41.59,112,2.8,157.84-4.11S374.73,179.94,375.64,180Z"/>
</svg>
