<svg id="Layer_1" data-name="Layer 1" xmlns="http://www.w3.org/2000/svg" width="400" height="400" viewBox="0 0 400 400">
  <defs>
    <style>
      .cls-1 {
        fill: #c62446;
      }

      .cls-2 {
        fill: #e04048;
      }
    </style>
  </defs>
  <title>Artboard 1</title>
  <path class="cls-1" d="M375.64,90.72l-.36,97.63c-.08,22.8-16.93,45.55-50.6,63-68.08,35.22-179.17,35.29-248.14.15-34.84-17.75-52.26-41.1-52.18-64.4l.36-97.63c-.09,23.3,17.33,46.65,52.18,64.4,69,35.14,180,35.07,248.13-.15C358.71,136.27,375.55,113.52,375.64,90.72Z"/>
  <path class="cls-2" d="M323.27,26.31c69,35.13,69.67,92.16,1.59,127.38S145.68,189,76.72,153.84,7.06,61.67,75.15,26.46,254.32-8.83,323.27,26.31Z"/>
</svg>
