<svg id="Layer_1" data-name="Layer 1" xmlns="http://www.w3.org/2000/svg" width="200" height="200" viewBox="0 0 200 200">
  <defs>
    <style>
      .cls-1 {
        fill: #9e9eb3;
      }

      .cls-2 {
        fill: #cbcbdc;
      }
    </style>
  </defs>
  <title>Artboard 2</title>
  <path class="cls-1" d="M181.9,95.55l-.47-49.94L151.8,48,151.54,20c-3,1.08-28.06,2.49-28.06,2.49S92.39,13.22,87.35,9.5l.46,49C84,61.6,76.35,48.82,76.35,48.82c-14-1.68-28.19.59-34.41,5.11-1.77,1.3-23.75,8.48-23.78,4.57l-.06,50c0,3.91,3.2,7.49,7.49,10.39,6,4,13.8,6.82,22,8.59L67,130c1.58.08,3.21.12,4.89.14l.22,23.53c31.82,15.87,46.37,8.56,61.8-2.66,7.43-5.42,11-12.06,10.9-19l-.16-17.47c3-1.09,6.08-2.2,7.1-2.48l-.13-14.32c9.3,3.94,17,6.84,17.73,7.13Z"/>
  <path class="cls-2" d="M138.76,66.65c9,11.95,7.77,25-5.11,34.38-15.42,11.23-30,18.53-61.79,2.67l4-13.5c24.2,13.06,33.63,8.68,44.4.84,6.66-4.84,8.53-11.82,3.75-19.1C102.71,78.59,82.22,80.81,66.75,80L47.29,77.49c-8.16-1.77-16-4.58-22-8.6-8.35-5.63-10.46-13.89.76-22C40.07,36.66,67,34,90,39.36c5-3.16,15.7-10.46,20.6-13.38l-3.67-2.47c-6-4-14.32-10.29-19.36-14L99.86-.09a224.27,224.27,0,0,0,19.51,15.18L123.72,18l6.57-3.82a60.13,60.13,0,0,0,6.9-4.53L151.75,20a69.13,69.13,0,0,0-7.5,3.21c-2.23,1-4.57,2.2-7,3.5,14.18,8.95,42.9,18.44,44.41,18.94L169.1,54.89c-1.55-.59-30.94-11.72-45.58-20.65C120,36.35,110.59,42.67,107.15,45a110.41,110.41,0,0,1,18.94,10L128,56.31c2.69-1.31,10.93-4.87,12.6-5.92L151.5,62.08C149.71,62.57,141.56,65.59,138.76,66.65ZM42.08,61.36c3.22,2.17,8.33,3.91,14.9,5.07A177.69,177.69,0,0,1,76.55,48.82c-14-1.68-28.19.59-34.4,5.11-3.45,2.51-3.73,5-.07,7.43m35.79,6.09a124.34,124.34,0,0,0,35.18-5.53,82.61,82.61,0,0,0-18-8.73l-.21.16a155.64,155.64,0,0,0-16.95,14.1"/>
</svg>
