<?xml version="1.0" encoding="utf-8"?>
<!-- Generator: Adobe Illustrator 22.1.0, SVG Export Plug-In . SVG Version: 6.00 Build 0)  -->
<svg version="1.1" xmlns="http://www.w3.org/2000/svg" xmlns:xlink="http://www.w3.org/1999/xlink" x="0px" y="0px"
	 viewBox="0 0 107.5 107.5" style="enable-background:new 0 0 107.5 107.5;" xml:space="preserve">
<style type="text/css">
	.st0{display:none;}
	.st1{display:inline;}
	.st2{fill:#EF487F;}
	.st3{fill:#E2E2E2;}
	.st4{fill:none;stroke:#6B6B6B;stroke-miterlimit:10;}
	.st5{fill:#FFFFFF;}
	.st6{fill:#444444;}
	.st7{fill:#F4F4F4;}
	.st8{fill:#F2E4F2;}
	.st9{fill:#DD80DA;}
	.st10{fill:none;stroke:#FFFFFF;stroke-width:4;stroke-miterlimit:10;}
	.st11{fill:none;stroke:#E254BA;stroke-width:1.25;stroke-miterlimit:10;}
	.st12{fill:#B5B5B5;}
	.st13{fill:#EAECF4;}
	.st14{fill:url(#SVGID_1_);}
	.st15{fill:#5E80EF;}
	.st16{fill:none;stroke:#445FB7;stroke-width:1.25;stroke-miterlimit:10;}
	.st17{fill:#F7EDE7;}
	.st18{fill:#FF9769;}
	.st19{fill:url(#SVGID_2_);}
	.st20{fill:none;stroke:#E26252;stroke-width:1.25;stroke-miterlimit:10;}
	.st21{fill:#F7E8EB;}
	.st22{fill:url(#SVGID_3_);}
	.st23{fill:none;stroke:#C13658;stroke-width:1.25;stroke-miterlimit:10;}
	.st24{fill:#E2F2E4;}
	.st25{fill:#36DD99;}
	.st26{fill:none;stroke:#2AB568;stroke-width:1.25;stroke-miterlimit:10;}
	.st27{fill:#F2ECE7;}
	.st28{fill:#E8EDEF;}
	.st29{fill:none;stroke:#FFFFFF;stroke-width:3;stroke-miterlimit:10;}
	.st30{fill:#139B57;}
	.st31{fill:#36DD99;stroke:#139B57;stroke-width:1.25;stroke-miterlimit:10;}
	.st32{fill:#606060;}
	.st33{display:inline;fill:none;stroke:#EF487F;stroke-miterlimit:10;}
	.st34{fill:#406EEB;}
	.st35{fill:#1E4CC1;}
	.st36{fill:none;stroke:#242EED;stroke-width:2;stroke-miterlimit:10;}
	.st37{fill:#CCCCCC;}
	.st38{fill:#757575;}
	.st39{fill:#4F4F4F;}
	.st40{fill:none;stroke:#4F4F4F;stroke-width:2;stroke-miterlimit:10;}
	.st41{fill:#FCFCFC;}
	.st42{fill:#45455B;}
	.st43{fill:#9095AD;}
	.st44{fill:#242430;}
	.st45{fill:#17171E;}
	.st46{fill:#EAEAEA;}
	.st47{fill:#DBDBDB;}
	.st48{fill:#F779A7;}
	.st49{fill:none;stroke:#FCFCFC;stroke-linejoin:round;stroke-miterlimit:10;}
	.st50{fill:none;stroke:#4F4F4F;stroke-width:3.0694;stroke-miterlimit:10;}
	.st51{fill:none;stroke:#757575;stroke-width:2;stroke-miterlimit:10;}
	.st52{fill:none;stroke:#CCCCCC;stroke-width:2;stroke-miterlimit:10;}
	.st53{fill:none;stroke:#DBDBDB;stroke-width:0.5692;stroke-miterlimit:10;}
	.st54{fill:none;stroke:#DBDBDB;stroke-width:2;stroke-miterlimit:10;}
	.st55{fill:none;stroke:#45454B;stroke-width:2;stroke-miterlimit:10;}
	.st56{fill:none;stroke:#45455B;stroke-width:2;stroke-miterlimit:10;}
	.st57{fill:none;stroke:#757575;stroke-miterlimit:10;}
	.st58{fill:none;stroke:#406EEB;stroke-width:2;stroke-miterlimit:10;}
	.st59{fill:#F1F1F1;}
	.st60{fill:#CBCBCB;}
	.st61{fill:none;stroke:#000000;stroke-width:2;stroke-miterlimit:10;}
	.st62{fill:none;stroke:#4F4F4F;stroke-width:2;stroke-linejoin:round;stroke-miterlimit:10;}
	.st63{fill:#FCFCFC;stroke:#CCCCCC;stroke-width:2;stroke-miterlimit:10;}
	.st64{fill:none;stroke:#303030;stroke-width:2.5226;stroke-miterlimit:10;}
	.st65{fill:#303030;}
	.st66{fill:none;stroke:#757575;stroke-width:1.2878;stroke-miterlimit:10;}
	.st67{fill:none;stroke:#406EEB;stroke-width:3;stroke-miterlimit:10;}
	.st68{fill:none;stroke:#A0A0A0;stroke-width:1.1194;stroke-linejoin:round;stroke-miterlimit:10;}
	.st69{fill:none;stroke:#757575;stroke-width:1.3932;stroke-miterlimit:10;}
	.st70{fill:#FCFCFC;stroke:#CCCCCC;stroke-width:2.1761;stroke-miterlimit:10;}
	.st71{fill:none;stroke:#DBDBDB;stroke-width:2.1761;stroke-miterlimit:10;}
	.st72{fill:none;stroke:#4F4F4F;stroke-width:3;stroke-linejoin:round;stroke-miterlimit:10;}
	.st73{display:none;opacity:0.2;}
	.st74{display:inline;fill:none;stroke:#FF2929;stroke-miterlimit:10;}
	.st75{display:inline;fill:none;stroke:#FF2929;stroke-width:1.7321;stroke-miterlimit:10;}
	.st76{display:inline;fill:none;stroke:#0C7559;stroke-width:2;stroke-miterlimit:10;}
	.st77{display:inline;fill:none;stroke:#FF00E1;stroke-miterlimit:10;}
</style>
<g id="Old_Version" class="st0">
	<g id="Layer_3" class="st1">
	</g>
	<g id="Layer_5" class="st1">
	</g>
	<g id="Layer_4" class="st1">
	</g>
	<g id="Layer_9" class="st1">
	</g>
	<g id="Layer_1" class="st1">
		<g id="Layer_7">
		</g>
		<g id="Layer_8">
		</g>
	</g>
	<g id="Layer_19" class="st1">
		<g id="Layer_25">
		</g>
		<g id="Layer_24">
		</g>
		<g id="Layer_23">
		</g>
		<g id="Layer_15">
		</g>
		<g id="Layer_22">
		</g>
		<g id="Layer_18">
		</g>
		<g id="Layer_21_copy">
		</g>
		<g id="Layer_20">
		</g>
		<g id="Layer_21">
		</g>
		<g id="Layer_17">
		</g>
		<g id="Layer_26">
		</g>
	</g>
	<g id="Layer_27" class="st1">
		<g id="Layer_28">
		</g>
		<g id="Layer_33">
		</g>
		<g id="Layer_29">
		</g>
		<g id="Layer_31">
		</g>
		<g id="Layer_30">
		</g>
		<g id="Layer_32" class="st0">
		</g>
	</g>
</g>
<g id="Outside">
	<g id="Layer_34">
	</g>
</g>
<g id="Web">
</g>
<g id="Tablet">
</g>
<g id="Mobile">
	<circle class="st34" cx="53.8" cy="53.8" r="53.8"/>
	<path class="st5" d="M61.1,15.6v-1c0-0.8-0.6-1.4-1.4-1.4l-25.5,0c-0.6,0-1,0.5-1,1l0,7.5c0,0.6,0.5,1,1,1l16.5,0l-0.1,33.5
		c0,2.6-1.7,4.9-5,4.9c-3.2,0-4.8-2.3-4.8-4.9l0-7.7c0-0.6-0.5-1-1-1l-7.6,0c-0.6,0-1,0.5-1,1l0.1,11c0,6.1,6.6,11,14.8,11
		s14.8-4.7,14.8-10.8C60.9,59.7,61.1,15.6,61.1,15.6z"/>
	<path class="st5" d="M73.7,44.3v-1c0-0.8-0.6-1.4-1.4-1.4l-26.3,0c-0.6,0-1,0.5-1,1l0,7.5c0,0.6,0.5,1,1,1h17.4l-0.1,30.3
		c0,2.6-1.7,4.9-5,4.9c-3.2,0-4.8-2.3-4.8-4.9l0-4.7c0-0.6-0.5-1-1-1l-7.6,0c-0.6,0-1,0.5-1,1l0.1,8c0,6.1,6.6,11,14.8,11
		s14.8-4.7,14.8-10.8C73.5,85.1,73.7,44.3,73.7,44.3z"/>
</g>
<g id="Layer_2" class="st73">
</g>
<g id="Layer_35" class="st0">
</g>
</svg>
