<?xml version="1.0" encoding="utf-8"?>
<!-- Generator: Adobe Illustrator 22.1.0, SVG Export Plug-In . SVG Version: 6.00 Build 0)  -->
<svg version="1.1" id="Layer_1" xmlns="http://www.w3.org/2000/svg" xmlns:xlink="http://www.w3.org/1999/xlink" x="0px" y="0px"
	 viewBox="0 0 107.5 107.5" style="enable-background:new 0 0 107.5 107.5;" xml:space="preserve">
<style type="text/css">
	.st0{fill:#4949F3;}
	.st1{fill:#FFFFFF;}
</style>
<circle class="st0" cx="53.8" cy="53.8" r="53.8"/>
<path class="st1" d="M61.1,15.6v-1c0-0.8-0.6-1.4-1.4-1.4l-25.5,0c-0.6,0-1,0.5-1,1l0,7.5c0,0.6,0.5,1,1,1l16.5,0l-0.1,33.5
	c0,2.6-1.7,4.9-5,4.9c-3.2,0-4.8-2.3-4.8-4.9l0-7.7c0-0.6-0.5-1-1-1l-7.6,0c-0.6,0-1,0.5-1,1l0.1,11c0,6.1,6.6,11,14.8,11
	s14.8-4.7,14.8-10.8C60.9,59.7,61.1,15.6,61.1,15.6z"/>
<path class="st1" d="M76.7,44.3v-1c0-0.8-0.6-1.4-1.4-1.4l-29.4,0c-0.6,0-1,0.5-1,1l0,7.5c0,0.6,0.5,1,1,1l20.5,0l-0.1,30.3
	c0,2.6-1.7,4.9-5,4.9c-3.2,0-4.8-2.3-4.8-4.9l0-4.7c0-0.6-0.5-1-1-1l-7.6,0c-0.6,0-1,0.5-1,1l0.1,8c0,6.1,6.6,11,14.8,11
	s14.8-4.7,14.8-10.8C76.5,85.1,76.7,44.3,76.7,44.3z"/>
</svg>
