<?xml version="1.0" encoding="utf-8"?>
<!-- Generator: Adobe Illustrator 22.1.0, SVG Export Plug-In . SVG Version: 6.00 Build 0)  -->
<svg version="1.1" id="Layer_1" xmlns="http://www.w3.org/2000/svg" xmlns:xlink="http://www.w3.org/1999/xlink" x="0px" y="0px"
	 viewBox="0 0 198.1 43.2" style="enable-background:new 0 0 198.1 43.2;" xml:space="preserve">
<style type="text/css">
	.st0{fill:#406EEB;}
</style>
<path class="st0" d="M22.5,1.8V1c0-0.6-0.5-1.1-1.1-1.1L2.3,0C1.9,0,1.5,0.3,1.5,0.8v5.7c0,0.4,0.3,0.8,0.8,0.8h12.5v25.3
	c0,2-1.3,3.7-3.8,3.7c-2.4,0-3.6-1.7-3.6-3.7v-5.8C7.4,26.4,7,26,6.6,26H0.8C0.4,26,0,26.3,0,26.8L0.1,35c0,4.6,5,8.3,11.2,8.3
	s11.1-3.6,11.1-8.2L22.5,1.8z"/>
<path class="st0" d="M123.5,4.3V3.6c0-0.6-0.5-1.1-1.1-1.1h-16.8c-0.4,0-0.8,0.3-0.8,0.8V9c0,0.4,0.3,0.8,0.8,0.8h10.1v22.8
	c0,2-1.3,3.7-3.8,3.7c-2.4,0-3.6-1.7-3.6-3.7v-3.5c0-0.4-0.4-0.8-0.8-0.8h-5.8c-0.4,0-0.8,0.3-0.8,0.8l0.1,6c0,4.6,5,8.3,11.2,8.3
	s11.1-3.6,11.1-8.2L123.5,4.3z"/>
<path class="st0" d="M47.6,16.7h-5.8c-0.4,0-0.8,0.3-0.8,0.8v15.2c0,2-0.6,4.1-3.4,4.1s-3.4-2.1-3.4-4.1V17.5c0-0.4-0.3-0.8-0.8-0.8
	h-5.8c-0.4,0-0.7,0.3-0.7,0.8v17.6c0,4.6,3.6,8.3,11,8.3s10.6-3.6,10.6-8.2V17.6C48.3,17,48,16.7,47.6,16.7z"/>
<path class="st0" d="M140.4,15.4L140.4,15.4c-6.1,0-11.1,5-11.1,11.1v5.7c0,6.1,5,11.1,11.1,11.1l0,0c6.1,0,11.1-5,11.1-11.1v-5.7
	C151.5,20.4,146.5,15.4,140.4,15.4z M145.1,31.6c0,2.6-2.1,4.7-4.7,4.7l0,0c-2.6,0-4.7-2.1-4.7-4.7v-4.5c0-2.6,2.1-4.7,4.7-4.7l0,0
	c2.6,0,4.7,2.1,4.7,4.7V31.6z"/>
<path class="st0" d="M71.7,39.3c-0.1-0.6-0.3-2-0.2-3.2V24.5c0-2.9-1.1-4.6-1.8-5.4c-2-2.3-5.2-3.8-8.5-3.3
	c-3.3,0.4-5.4,1.5-7.8,4.5c-0.4,0.7-0.2,1.2,0.3,1.6l3.2,2.3c0.6,0.4,1.3,0.2,1.6-0.3c1.3-2.3,3.2-2.2,4.7-1.7s1.7,2.2,1.7,4.2
	c-2,0.1-5.3,0.1-7.3,1c-2.6,1.2-4.8,2.5-5.5,5.6s0.2,5.8,1.9,7.5c4.1,4,8.6,3.1,10.8,1.2l0.5,1.2c0.1,0.3,0.4,0.5,0.8,0.4l5.7-0.9
	c0.3-0.1,0.5-0.4,0.4-0.7C72.2,41.6,71.8,39.8,71.7,39.3z M60.6,37.7c-3.7-0.1-3.6-4.3-2-5.5c2.3-1.6,5.3-1.1,6.2-1.4
	C65.1,32.6,65.4,37.7,60.6,37.7z"/>
<path class="st0" d="M174.2,34.3c-0.2-3-1.8-5.1-3.9-6.3c-3.8-2.2-8.7-1.4-8.9-4.2c0-2.2,2.3-2.4,3.2-2.5c1.3-0.1,4,0.9,4.1,0.9
	c0.7,0.3,1.3,0.1,1.6-0.6l1.3-2.7c0.3-0.6,0.1-1.2-0.6-1.6c-2.5-1-3.4-1.8-7-1.5c-4.4,0.3-8.9,4.4-8.5,9.1c0.2,3,1.8,4.7,3.4,5.6
	c3.6,2,8.6,1.7,8.8,4.7c0.1,1.9-1.8,2.8-3.5,2.8c-0.4,0-0.7,0-1.1-0.1c-0.6-0.1-4.4-1.5-5.8-2c-0.6-0.2-1.2,0.1-1.4,0.7l-1,3
	c-0.2,0.6,0,1.2,0.7,1.5c2.7,0.8,5.4,1.7,7.7,1.9C170.1,43.5,174.5,38.8,174.2,34.3z"/>
<g>
	<g>
		<path class="st0" d="M197.8,37.9l-2.5-2.6c-0.5-0.6-1.3-0.5-1.7-0.1c-1.1,1.1-3.2,2.5-5.3,2.5c-2,0-3.7-1.1-4.1-4.1
			c-0.1-0.9,0.9-0.9,0.9-0.9H197c0.6,0,1.1-0.5,1.1-1v-4.5l0,0c0-6.5-5.4-10.3-10-10.3s-10.9,2.7-10.9,11.1v3.9
			c0,7.4,4.5,11.4,11.3,11.4c5.1,0,7-1.9,9.3-3.7C198.2,38.9,198.2,38.4,197.8,37.9z M188,22.6c2.8,0,4,2.5,4.1,5h-8.2
			C183.9,25.1,185.2,22.6,188,22.6z"/>
		<path class="st0" d="M183.3,15.3l-1.2-2.5c-0.1-0.2,0.2-0.5,0.6-0.7l11-6.6c0.4-0.2,0.9-0.1,1,0.2l2.1,4.3
			c0.1,0.3-0.1,0.7-0.5,0.9l-12,4.3C183.7,15.4,183.3,15.4,183.3,15.3z"/>
	</g>
</g>
<path class="st0" d="M97.8,25c0-5.4-2.5-7.4-6-8.2c-3.4-0.8-7.4-0.6-9.1,1.7c0-0.7-1.2-2.5-1.4-2.7c-0.3-0.5-1-0.6-1.5-0.3l-3.6,2.3
	c-0.5,0.3-0.7,0.9-0.3,1.5c0.3,0.6,1.2,1.8,1.2,5.9c0,0.3,0,17.4,0,17.4c0,0.4,0.3,0.8,0.7,0.8h5.9c0.4,0,0.7-0.4,0.7-0.8
	c0,0,0-13.6,0-15.1s0.3-4,3.1-4c2.8,0,3,2.5,3,4c0,1.3,0.2,15.1,0.2,15.1c0,0.4,0.3,0.8,0.7,0.8h5.7c0.4,0,0.7-0.4,0.7-0.8L97.8,25z
	"/>
</svg>
