<svg id="Layer_1" data-name="Layer 1" xmlns="http://www.w3.org/2000/svg" width="200" height="200" viewBox="0 0 200 200">
  <defs>
    <style>
      .cls-1 {
        isolation: isolate;
      }

      .cls-2 {
        fill: #285fa9;
      }

      .cls-3 {
        fill: #3385e1;
      }

      .cls-4 {
        fill: #2f79cf;
      }

      .cls-5 {
        fill: #121212;
      }

      .cls-6 {
        fill: #111;
      }
    </style>
  </defs>
  <title>Artboard 3</title>
  <g>
    <g class="cls-1">
      <polygon class="cls-2" points="140.57 56.23 197.26 20.66 197.13 94.21 139.42 129.78 140.57 56.23"/>
      <polygon class="cls-3" points="72.99 35.57 129.68 0 197.26 20.66 140.57 56.23 72.99 35.57"/>
      <polygon class="cls-4" points="140.57 56.23 139.42 129.78 71.84 109.12 72.99 35.57 140.57 56.23"/>
    </g>
    <g class="cls-1">
      <polygon class="cls-2" points="71.48 85.89 128.17 50.32 127.02 123.86 70.33 159.44 71.48 85.89"/>
      <polygon class="cls-3" points="2.77 65.23 60.58 29.65 128.17 50.32 71.48 85.89 2.77 65.23"/>
      <polygon class="cls-4" points="71.48 85.89 70.33 159.44 2.74 138.77 2.77 65.23 71.48 85.89"/>
    </g>
    <g class="cls-1">
      <polygon class="cls-5" points="101.6 103.66 107.31 99.64 107.7 110.18 101.99 114.19 101.6 103.66"/>
      <polygon class="cls-6" points="91.77 101.2 97.48 97.19 107.31 99.64 101.6 103.66 91.77 101.2"/>
      <polygon points="101.6 103.66 101.99 114.19 92.16 111.74 91.77 101.2 101.6 103.66"/>
    </g>
  </g>
</svg>
