<svg id="Layer_1" data-name="Layer 1" xmlns="http://www.w3.org/2000/svg" width="400" height="400" viewBox="0 0 400 400">
  <defs>
    <style>
      .cls-1 {
        fill: #23d6f9;
      }

      .cls-2 {
        fill: #28c3f6;
      }

      .cls-3 {
        fill: #1cf1fd;
      }

      .cls-4 {
        opacity: 0.5;
      }
    </style>
  </defs>
  <title>Artboard 4</title>
  <g>
    <polygon class="cls-1" points="355.12 44.49 355.12 240.84 181.19 196.35 181.19 0 355.12 44.49"/>
    <polygon class="cls-2" points="44.88 278.43 44.88 82.08 181.19 0 181.19 196.35 44.88 278.43"/>
    <polygon class="cls-3" points="223.4 322.92 44.88 278.43 181.19 196.35 355.12 240.84 223.4 322.92"/>
    <g class="cls-4">
      <polygon class="cls-2" points="223.31 126.57 355.12 44.49 355.12 240.84 223.4 322.92 223.31 126.57"/>
    </g>
    <g class="cls-4">
      <polygon class="cls-3" points="44.88 82.08 181.19 0 355.12 44.49 223.31 126.57 44.88 82.08"/>
    </g>
    <g class="cls-4">
      <polygon class="cls-1" points="223.31 126.57 223.4 322.92 44.88 278.43 44.88 82.08 223.31 126.57"/>
    </g>
  </g>
</svg>
